<?xml version="1.0" encoding="UTF-8"?>
<svg version="1.1" xmlns="http://www.w3.org/2000/svg" width="224" height="224">
<path d="M0 0 C73.92 0 147.84 0 224 0 C224 73.92 224 147.84 224 224 C150.08 224 76.16 224 0 224 C0 150.08 0 76.16 0 0 Z " fill="#FEED02" transform="translate(0,0)"/>
<path d="M0 0 C2.41952862 2.2410973 4.07938459 4.57718835 5.8125 7.375 C8.45596432 11.44951267 11.20776025 14.02038306 15 17 C15 17.66 15 18.32 15 19 C15.53109375 19.25136719 16.0621875 19.50273438 16.609375 19.76171875 C18.40827957 20.69350429 20.16276754 21.71180229 21.890625 22.76953125 C51.45269367 40.74739394 87.99659845 40.88047593 121 34 C133.06298114 30.91984951 145.53689731 25.30941296 154 16 C154.66 16 155.32 16 156 16 C156.25523437 15.43796875 156.51046875 14.8759375 156.7734375 14.296875 C158.15692781 11.70613518 159.79938583 9.54892155 161.625 7.25 C162.25664062 6.45078125 162.88828125 5.6515625 163.5390625 4.828125 C164.02117187 4.22484375 164.50328125 3.6215625 165 3 C165.33 3.66 165.66 4.32 166 5 C158.16160478 25.48984014 145.26667028 41.26571227 126 52 C125.33742188 52.39832031 124.67484375 52.79664063 123.9921875 53.20703125 C106.35126318 63.13499538 80.88683095 65.29854937 61.5 60.5 C48.69825776 56.724616 37.40351956 50.29761681 27 42 C26.41992188 41.56042969 25.83984375 41.12085938 25.2421875 40.66796875 C13.09207548 31.15780254 4.45917094 16.609947 0 2 C0 1.34 0 0.68 0 0 Z " fill="#0E0A06" transform="translate(29,85)"/>
<path d="M0 0 C0.495 0.99 0.495 0.99 1 2 C-6.77110112 22.31393099 -19.74973884 38.60543968 -39 49 C-39.33 49 -39.66 49 -40 49 C-39.98839844 47.79601562 -39.97679687 46.59203125 -39.96484375 45.3515625 C-39.95546566 43.77604321 -39.94636548 42.20052225 -39.9375 40.625 C-39.92912109 39.8309375 -39.92074219 39.036875 -39.91210938 38.21875 C-39.76959849 33.97607778 -39.76959849 33.97607778 -41 30 C-40.04480469 29.64808594 -39.08960938 29.29617187 -38.10546875 28.93359375 C-29.00766567 25.49373412 -19.77285915 21.84997896 -12.82421875 14.7890625 C-11 13 -11 13 -9 13 C-8.61714844 12.15695313 -8.61714844 12.15695313 -8.2265625 11.296875 C-6.84307219 8.70613518 -5.20061417 6.54892155 -3.375 4.25 C-2.74335938 3.45078125 -2.11171875 2.6515625 -1.4609375 1.828125 C-0.97882813 1.22484375 -0.49671875 0.6215625 0 0 Z " fill="#242115" transform="translate(194,88)"/>
<path d="M0 0 C2.41952862 2.2410973 4.07938459 4.57718835 5.8125 7.375 C8.45596432 11.44951267 11.20776025 14.02038306 15 17 C15 17.66 15 18.32 15 19 C15.56203125 19.26941406 16.1240625 19.53882812 16.703125 19.81640625 C19.14404396 21.07422673 21.43949384 22.45379261 23.75 23.9375 C24.54921875 24.44152344 25.3484375 24.94554688 26.171875 25.46484375 C26.77515625 25.97144531 27.3784375 26.47804688 28 27 C28 27.99 28 28.98 28 30 C28.59167969 30.19335938 29.18335937 30.38671875 29.79296875 30.5859375 C30.58316406 30.84632812 31.37335937 31.10671875 32.1875 31.375 C33.35345703 31.75785156 33.35345703 31.75785156 34.54296875 32.1484375 C37.05744968 33.01991102 39.52912126 34.0116485 42 35 C42 39.62 42 44.24 42 49 C40.35 48.34 38.7 47.68 37 47 C36.18273437 46.87753906 35.36546875 46.75507813 34.5234375 46.62890625 C22.65392088 43.67071403 13.15461989 28.50799745 7.08984375 18.69140625 C3.91470714 13.29639515 0 6.32279299 0 0 Z " fill="#1F1E0B" transform="translate(29,85)"/>
<path d="M0 0 C0 5.94 0 11.88 0 18 C-9 20.25 -9 20.25 -14 20.125 C-15.65 20.08375 -17.3 20.0425 -19 20 C-19 14.06 -19 8.12 -19 2 C-12.27623635 0.65524727 -6.97755453 0 0 0 Z " fill="#F9F9F8" transform="translate(133,125)"/>
<path d="M0 0 C5.94 0.66 11.88 1.32 18 2 C18 7.94 18 13.88 18 20 C11.11857344 20.19115074 6.96517613 19.74129403 0 18 C0 12.06 0 6.12 0 0 Z " fill="#F8F8F7" transform="translate(93,125)"/>
<path d="M0 0 C3.6196875 0.4640625 3.6196875 0.4640625 7.3125 0.9375 C8.06829346 1.03281006 8.82408691 1.12812012 9.6027832 1.22631836 C12.5347599 1.60994515 15.18750504 2.06250168 18 3 C18 8.94 18 14.88 18 21 C11.20894441 19.8681574 6.01458303 18.34143501 0 15 C0 10.05 0 5.1 0 0 Z " fill="#F5F4F0" transform="translate(73,121)"/>
<path d="M0 0 C0 4.95 0 9.9 0 15 C-5.98998504 17.84889532 -10.4149355 19.90248925 -17 21 C-17 15.06 -17 9.12 -17 3 C-14.56625 2.505 -12.1325 2.01 -9.625 1.5 C-8.86010254 1.34337891 -8.09520508 1.18675781 -7.30712891 1.02539062 C-2.22222222 0 -2.22222222 0 0 0 Z " fill="#FBFBF8" transform="translate(152,121)"/>
<path d="M0 0 C-0.03297271 2.94056614 -0.10006919 5.87347963 -0.1875 8.8125 C-0.19330078 9.64587891 -0.19910156 10.47925781 -0.20507812 11.33789062 C-0.28883472 13.65515651 -0.4380695 15.74970951 -1 18 C-3.140625 19.9140625 -3.140625 19.9140625 -6 21 C-7.03253906 21.43441406 -8.06507813 21.86882812 -9.12890625 22.31640625 C-24.88061573 28.03289695 -39.37898221 28.26209756 -56 28 C-56 27.67 -56 27.34 -56 27 C-52.04 26.67 -48.08 26.34 -44 26 C-44 20.06 -44 14.12 -44 8 C-46.31 8 -48.62 8 -51 8 C-51 7.67 -51 7.34 -51 7 C-45.72 7 -40.44 7 -35 7 C-35 7.33 -35 7.66 -35 8 C-36.98 8 -38.96 8 -41 8 C-41 13.94 -41 19.88 -41 26 C-34.73 25.34 -28.46 24.68 -22 24 C-22 18.06 -22 12.12 -22 6 C-27.445 5.505 -27.445 5.505 -33 5 C-33 4.67 -33 4.34 -33 4 C-29.10457803 3.4257851 -25.20849944 2.85627487 -21.31176758 2.29101562 C-19.33834479 2.003762 -17.36545672 1.71284265 -15.39257812 1.421875 C-13.52182617 1.15117188 -13.52182617 1.15117188 -11.61328125 0.875 C-10.46641846 0.70742187 -9.31955566 0.53984375 -8.13793945 0.3671875 C-5.38399103 0.0449329 -2.76793505 -0.07254211 0 0 Z M-12.625 3.5 C-15.05875 3.995 -17.4925 4.49 -20 5 C-20 10.94 -20 16.88 -20 23 C-13.63351684 21.80628441 -8.68560947 20.10124153 -3 17 C-3 12.05 -3 7.1 -3 2 C-6.27040822 2 -9.43162536 2.84612173 -12.625 3.5 Z " fill="#1F1B10" transform="translate(155,119)"/>
<path d="M0 0 C0.33 0 0.66 0 1 0 C1.34943109 4.19317311 0.58403645 5.76995444 -2 9 C-2 9.99 -2 10.98 -2 12 C-2.66 12 -3.32 12 -4 12 C-3.67 12.99 -3.34 13.98 -3 15 C-3.33 15.99 -3.66 16.98 -4 18 C-3.60602665 20.63804589 -3.60602665 20.63804589 -3 23 C-5.31 22.67 -7.62 22.34 -10 22 C-9.72800781 22.60585937 -9.45601562 23.21171875 -9.17578125 23.8359375 C-8.15696836 26.832446 -7.69576928 28.82914464 -8 32 C-11.14921837 36.05290712 -14.75639689 39.08407389 -19 42 C-19.66 42 -20.32 42 -21 42 C-21.33 42.99 -21.66 43.98 -22 45 C-23.7015625 44.7215625 -23.7015625 44.7215625 -25.4375 44.4375 C-26.613125 44.293125 -27.78875 44.14875 -29 44 C-29.495 44.495 -29.495 44.495 -30 45 C-31.66617115 45.04063832 -33.33388095 45.042721 -35 45 C-34.27554688 44.42765625 -33.55109375 43.8553125 -32.8046875 43.265625 C-17.47206279 30.8799393 -8.45265997 17.63680013 0 0 Z " fill="#FBED0D" transform="translate(195,89)"/>
<path d="M0 0 C0.99 0.66 1.98 1.32 3 2 C3.66 2 4.32 2 5 2 C6.38461538 11.23076923 6.38461538 11.23076923 5 14 C3.0625 15.3125 3.0625 15.3125 1 16 C0.34 15.67 -0.32 15.34 -1 15 C-1.33 15.66 -1.66 16.32 -2 17 C-2.66 16.34 -3.32 15.68 -4 15 C-5.98387708 13.96838392 -7.98276656 12.96476382 -10 12 C-9.67 9.03 -9.34 6.06 -9 3 C-7.56879256 2.44191911 -6.12969645 1.90403538 -4.6875 1.375 C-3.88699219 1.07335938 -3.08648437 0.77171875 -2.26171875 0.4609375 C-1.51535156 0.30882812 -0.76898438 0.15671875 0 0 Z " fill="#FBEB14" transform="translate(82,56)"/>
<path d="M0 0 C3.36668025 1.30361686 6.57813361 2.77564402 9.8125 4.375 C28.32080309 12.6472787 47.17757917 12.06397652 67 10 C64 12 64 12 61 12 C61 12.66 61 13.32 61 14 C61.99 14.495 61.99 14.495 63 15 C62.34 15.66 61.68 16.32 61 17 C59.12620898 16.54271842 57.25442263 16.07443842 55.39794922 15.55126953 C51.01188799 14.5429488 46.54619969 14.56489549 42.0625 14.4375 C40.17824896 14.37786377 38.29411707 14.31428538 36.41015625 14.24609375 C35.17471069 14.21020142 35.17471069 14.21020142 33.91430664 14.17358398 C32 14 32 14 31 13 C29.31816052 12.76712992 27.6287584 12.58735834 25.9375 12.4375 C25.01839844 12.35371094 24.09929687 12.26992187 23.15234375 12.18359375 C22.44207031 12.12300781 21.73179688 12.06242188 21 12 C21 11.34 21 10.68 21 10 C16.71 9.34 12.42 8.68 8 8 C8 7.34 8 6.68 8 6 C3.545 6.495 3.545 6.495 -1 7 C-1.33 5.68 -1.66 4.36 -2 3 C-1.34 3 -0.68 3 0 3 C0 2.01 0 1.02 0 0 Z " fill="#E4DF3D" transform="translate(67,135)"/>
<path d="M0 0 C0.62351668 3.83116361 0.8483267 7.19275065 0 11 C-3.94828439 15.26621741 -8.40668197 17.60167049 -14 19 C-14 14.38 -14 9.76 -14 5 C-2.25 0 -2.25 0 0 0 Z " fill="#F4F4EF" transform="translate(168,115)"/>
<path d="M0 0 C1.396478 0.45636536 2.7921508 0.91519488 4.1875 1.375 C5.35345703 1.75785156 5.35345703 1.75785156 6.54296875 2.1484375 C9.05744968 3.01991102 11.52912126 4.0116485 14 5 C14 9.62 14 14.24 14 19 C8.5018249 16.80072996 3.87838914 14.56622311 0 10 C-0.74628767 6.53581334 -0.56748725 3.4819897 0 0 Z " fill="#FAF9F8" transform="translate(57,115)"/>
<path d="M0 0 C1.12921875 0.47179687 1.12921875 0.47179687 2.28125 0.953125 C11.04586313 4.48449825 19.80620918 6.88743446 29 9 C26 11 26 11 23.51953125 10.7578125 C21.01302083 10.171875 18.50651042 9.5859375 16 9 C16 13.95 16 18.9 16 24 C18.31 24.66 20.62 25.32 23 26 C25.69264629 26.9422101 28.33784054 27.97249986 31 29 C28 31 28 31 26.16015625 30.78515625 C8.92350956 24.84701912 8.92350956 24.84701912 6 19 C9.07536854 19.65900754 11.07735566 20.53867783 14 22 C14 17.38 14 12.76 14 8 C11.64875 7.319375 11.64875 7.319375 9.25 6.625 C5.97103608 5.67582623 3.00950123 4.61725534 0 3 C0 2.01 0 1.02 0 0 Z " fill="#312A16" transform="translate(57,112)"/>
<path d="M0 0 C-16.53573094 11.02382063 -49.43567676 7.18605519 -68.32421875 3.8515625 C-72 3 -72 3 -75 1 C-73.45874525 0.94517276 -71.91690094 0.90683866 -70.375 0.875 C-69.51648438 0.85179688 -68.65796875 0.82859375 -67.7734375 0.8046875 C-65 1 -65 1 -62.27832031 2.00219727 C-58.59714857 3.12261348 -55.61575282 3.2122546 -51.7734375 3.16015625 C-50.76828598 3.1523539 -50.76828598 3.1523539 -49.74282837 3.14439392 C-47.61998873 3.12671622 -45.49765122 3.09556085 -43.375 3.0625 C-41.24525823 3.03479408 -39.115588 3.01009593 -36.98574829 2.99131775 C-35.05862325 2.97355656 -33.13159434 2.94614231 -31.20458984 2.91821289 C-28.56841369 2.98549302 -26.492361 3.20641048 -24 4 C-23.67 3.34 -23.34 2.68 -23 2 C-20.525 2.495 -20.525 2.495 -18 3 C-18 2.34 -18 1.68 -18 1 C-16.12528812 0.83012319 -14.25021305 0.66425224 -12.375 0.5 C-11.33085937 0.4071875 -10.28671875 0.314375 -9.2109375 0.21875 C-6.12853212 0.00875645 -3.08834771 -0.03709727 0 0 Z " fill="#F6EA2C" transform="translate(153,118)"/>
<path d="M0 0 C2.41952862 2.2410973 4.07938459 4.57718835 5.8125 7.375 C7.7690586 10.42290536 9.47012915 12.55474127 12.4375 14.625 C13.283125 15.40875 14.12875 16.1925 15 17 C14.875 20.8125 14.875 20.8125 14 24 C13.01 24.33 12.02 24.66 11 25 C0 7.29494382 0 7.29494382 0 0 Z " fill="#352F12" transform="translate(29,85)"/>
<path d="M0 0 C0.66 1.65 1.32 3.3 2 5 C3.423125 4.9690625 3.423125 4.9690625 4.875 4.9375 C8 5 8 5 10 6 C10 6.99 10 7.98 10 9 C11.98 9.66 13.96 10.32 16 11 C10.46729484 13.02383989 5.18123967 10.07249587 0 8 C-8.53731343 3.92537313 -8.53731343 3.92537313 -10 1 C-6.56484998 0.37542727 -3.50935186 0 0 0 Z " fill="#EEE51E" transform="translate(62,107)"/>
<path d="M0 0 C1.11375 0.2475 1.11375 0.2475 2.25 0.5 C5.19006578 1.11925696 5.19006578 1.11925696 9 1 C9.99 1.33 10.98 1.66 12 2 C12 3.98 12 5.96 12 8 C9.49046058 9.25476971 8.62766637 8.67810745 6 8 C5.67 8.33 5.34 8.66 5 9 C2 9.125 2 9.125 -1 9 C-2 8 -2 8 -2.0625 4.9375 C-2.041875 3.968125 -2.02125 2.99875 -2 2 C-1.34 2 -0.68 2 0 2 C0 1.34 0 0.68 0 0 Z " fill="#F2E529" transform="translate(146,59)"/>
<path d="M0 0 C0.33 0 0.66 0 1 0 C1.34943109 4.19317311 0.58403645 5.76995444 -2 9 C-2 9.99 -2 10.98 -2 12 C-2.66 12 -3.32 12 -4 12 C-3.67 12.99 -3.34 13.98 -3 15 C-3.33 15.99 -3.66 16.98 -4 18 C-3.60602665 20.63804589 -3.60602665 20.63804589 -3 23 C-3.598125 22.814375 -4.19625 22.62875 -4.8125 22.4375 C-7.16408762 21.77906313 -7.16408762 21.77906313 -10 23 C-10.268125 23.928125 -10.53625 24.85625 -10.8125 25.8125 C-12.3237753 29.86908106 -14.30617778 30.91218744 -18 33 C-18.66 32.67 -19.32 32.34 -20 32 C-19.5875 31.58492187 -19.175 31.16984375 -18.75 30.7421875 C-10.48353331 21.92216277 -5.18640246 10.82162821 0 0 Z " fill="#F0E524" transform="translate(195,89)"/>
<path d="M0 0 C0.28328381 3.70787035 0.46346554 7.30318076 0 11 C-2.5 13.1875 -2.5 13.1875 -5 14 C-5.33 13.01 -5.66 12.02 -6 11 C-6.66 10.67 -7.32 10.34 -8 10 C-7.67 9.01 -7.34 8.02 -7 7 C-7.99 6.67 -8.98 6.34 -10 6 C-10.66 5.34 -11.32 4.68 -12 4 C-10.3767313 3.3291288 -8.75132422 2.66342971 -7.125 2 C-6.22007812 1.62875 -5.31515625 1.2575 -4.3828125 0.875 C-2 0 -2 0 0 0 Z " fill="#EAEAE6" transform="translate(168,115)"/>
<path d="M0 0 C3.42448877 1.3269894 6.70264333 2.82400688 10 4.4375 C16.13680616 7.26729602 22.39051848 8.70752587 29 10 C25.77208445 12.1519437 24.71599191 12.20086443 21 12 C21 11.34 21 10.68 21 10 C16.71 9.34 12.42 8.68 8 8 C8 7.34 8 6.68 8 6 C3.545 6.495 3.545 6.495 -1 7 C-1.33 5.68 -1.66 4.36 -2 3 C-1.34 3 -0.68 3 0 3 C0 2.01 0 1.02 0 0 Z " fill="#EEE723" transform="translate(67,135)"/>
<path d="M0 0 C0.99 0 1.98 0 3 0 C3 1.32 3 2.64 3 4 C3.99 4.33 4.98 4.66 6 5 C6 5.66 6 6.32 6 7 C6.66 7 7.32 7 8 7 C8.33 8.65 8.66 10.3 9 12 C9.99 11.34 10.98 10.68 12 10 C12.99 10 13.98 10 15 10 C15.33 12.64 15.66 15.28 16 18 C17.98 18.66 19.96 19.32 22 20 C22 20.99 22 21.98 22 23 C17.15853891 21.53289058 13.44051028 18.6487256 10 15 C10 14.34 10 13.68 10 13 C9.01 12.67 8.02 12.34 7 12 C5.17578125 9.53125 5.17578125 9.53125 3.3125 6.5 C2.68988281 5.4996875 2.06726562 4.499375 1.42578125 3.46875 C0 1 0 1 0 0 Z " fill="#ECE122" transform="translate(30,85)"/>
<path d="M0 0 C5.28 0 10.56 0 16 0 C16 0.33 16 0.66 16 1 C14.02 1 12.04 1 10 1 C10 6.94 10 12.88 10 19 C11.65 19 13.3 19 15 19 C11.95318939 21.03120707 11.39881676 21.24659875 7.98828125 21.1953125 C7.23095703 21.18886719 6.47363281 21.18242187 5.69335938 21.17578125 C4.90767578 21.15902344 4.12199219 21.14226562 3.3125 21.125 C2.51521484 21.11597656 1.71792969 21.10695312 0.89648438 21.09765625 C-1.069139 21.07411585 -3.03460775 21.03824547 -5 21 C-5 20.67 -5 20.34 -5 20 C-1.04 19.67 2.92 19.34 7 19 C7 13.06 7 7.12 7 1 C4.69 1 2.38 1 0 1 C0 0.67 0 0.34 0 0 Z " fill="#696957" transform="translate(104,126)"/>
<path d="M0 0 C1.48030272 0.81042836 2.95921142 1.62340348 4.4375 2.4375 C5.26121094 2.88996094 6.08492187 3.34242187 6.93359375 3.80859375 C9 5 9 5 10 6 C10.07179964 7.51928038 10.08392007 9.04167482 10.0625 10.5625 C10.05347656 11.38878906 10.04445313 12.21507813 10.03515625 13.06640625 C10.02355469 13.70449219 10.01195312 14.34257813 10 15 C5.51401903 13.01056496 2.61868506 10.13341465 0 6 C-0.375 2.5625 -0.375 2.5625 0 0 Z " fill="#F4F3F3" transform="translate(45,107)"/>
<path d="M0 0 C1 2 1 2 0.45849609 3.75585938 C-0.55213354 6.01249244 -1.57694338 8.26046848 -2.625 10.5 C-2.96917969 11.28503906 -3.31335938 12.07007812 -3.66796875 12.87890625 C-6.34524096 18.63849923 -6.34524096 18.63849923 -9.7734375 20.53125 C-10.50820312 20.6859375 -11.24296875 20.840625 -12 21 C-12.33 19.02 -12.66 17.04 -13 15 C-12.38125 14.7525 -11.7625 14.505 -11.125 14.25 C-8.54888164 12.73463626 -8.30364274 11.64453241 -7 9 C-5.8237752 7.39267019 -4.6136253 5.80975038 -3.375 4.25 C-2.74335938 3.45078125 -2.11171875 2.6515625 -1.4609375 1.828125 C-0.97882813 1.22484375 -0.49671875 0.6215625 0 0 Z " fill="#615946" transform="translate(194,88)"/>
<path d="M0 0 C0.44928038 3.51198045 0.17898506 4.75231361 -1.93359375 7.67578125 C-3.17302734 8.98095703 -3.17302734 8.98095703 -4.4375 10.3125 C-5.26121094 11.19550781 -6.08492187 12.07851562 -6.93359375 12.98828125 C-9 15 -9 15 -10 15 C-10.48225216 11.55055743 -10.70121995 8.42760497 -10 5 C-7.31487143 2.21065411 -3.9575532 0 0 0 Z " fill="#EDEDE5" transform="translate(180,108)"/>
<path d="M0 0 C0.99 1.485 0.99 1.485 2 3 C2.99 3.33 3.98 3.66 5 4 C4.34 4 3.68 4 3 4 C3.33 6.31 3.66 8.62 4 11 C5.98 11 7.96 11 10 11 C10.33 11.66 10.66 12.32 11 13 C11.99 13 12.98 13 14 13 C14 14.98 14 16.96 14 19 C8.56530784 16.99215636 3.79494174 14.46797627 0 10 C-0.74628767 6.53581334 -0.56748725 3.4819897 0 0 Z " fill="#EEEEE5" transform="translate(57,115)"/>
<path d="M0 0 C4.44936709 -0.36075949 4.44936709 -0.36075949 6.8125 1.1875 C8.38243085 3.58371024 8.29573841 5.19048514 8 8 C7 9 7 9 5.15234375 9.09765625 C3.1015625 9.06510417 1.05078125 9.03255208 -1 9 C-0.67 6.03 -0.34 3.06 0 0 Z " fill="#E2D630" transform="translate(73,59)"/>
<path d="M0 0 C3.28375284 3.03115647 5.84465516 6.39303616 8.484375 9.97265625 C11.39911985 13.8715031 14.46013873 17.64644722 18 21 C17.34 21.33 16.68 21.66 16 22 C16 21.34 16 20.68 16 20 C15.01 19.67 14.02 19.34 13 19 C13 18.34 13 17.68 13 17 C11.88625 16.814375 10.7725 16.62875 9.625 16.4375 C7.830625 15.7259375 7.830625 15.7259375 6 15 C4.75 11.4375 4.75 11.4375 4 8 C3.01 7.67 2.02 7.34 1 7 C0.67 4.69 0.34 2.38 0 0 Z " fill="#F7EF1F" transform="translate(36,104)"/>
<path d="M0 0 C1.32 0 2.64 0 4 0 C4 0.66 4 1.32 4 2 C3.01 2 2.02 2 1 2 C1 2.66 1 3.32 1 4 C1.97582031 3.97679688 2.95164062 3.95359375 3.95703125 3.9296875 C5.22933594 3.91164063 6.50164062 3.89359375 7.8125 3.875 C9.07707031 3.85179688 10.34164062 3.82859375 11.64453125 3.8046875 C15 4 15 4 18 6 C8.84755529 6.30659554 0.65203245 6.49409003 -8 3 C-8 2.67 -8 2.34 -8 2 C-6.865625 1.855625 -5.73125 1.71125 -4.5625 1.5625 C-1.19222799 1.38828522 -1.19222799 1.38828522 0 0 Z " fill="#FAEA14" transform="translate(92,116)"/>
<path d="M0 0 C0.66 0.33 1.32 0.66 2 1 C1.67 2.65 1.34 4.3 1 6 C0.195625 6.12375 -0.60875 6.2475 -1.4375 6.375 C-2.7059375 6.684375 -2.7059375 6.684375 -4 7 C-4.33 7.66 -4.66 8.32 -5 9 C-4.01 9 -3.02 9 -2 9 C-2 9.99 -2 10.98 -2 12 C-2.969375 11.814375 -3.93875 11.62875 -4.9375 11.4375 C-5.948125 11.293125 -6.95875 11.14875 -8 11 C-8.33 11.33 -8.66 11.66 -9 12 C-10.66617115 12.04063832 -12.33388095 12.042721 -14 12 C-13.360625 11.505 -12.72125 11.01 -12.0625 10.5 C-7.9286492 7.12542792 -3.97060754 3.56403117 0 0 Z " fill="#EAE32A" transform="translate(174,122)"/>
<path d="M0 0 C0 4.95 0 9.9 0 15 C-0.99 15.495 -0.99 15.495 -2 16 C-2 12.7 -2 9.4 -2 6 C-5.02734375 5.31640625 -5.02734375 5.31640625 -8.0546875 4.6328125 C-10 4 -10 4 -12 2 C-10.37548581 1.66430703 -8.75037083 1.3315204 -7.125 1 C-6.22007812 0.814375 -5.31515625 0.62875 -4.3828125 0.4375 C-2 0 -2 0 0 0 Z " fill="#EEECE8" transform="translate(152,121)"/>
<path d="M0 0 C3 0 3 0 4.5625 1.4375 C5.036875 1.953125 5.51125 2.46875 6 3 C6.66 3.33 7.32 3.66 8 4 C7.49396008 6.16874252 7.00016187 7.99967627 6 10 C2.64641875 8.88213958 0.68841859 7.25245881 -2 5 C-1.34 3.35 -0.68 1.7 0 0 Z " fill="#F9ED0D" transform="translate(48,98)"/>
<path d="M0 0 C0.66 0.33 1.32 0.66 2 1 C1.855625 1.825 1.71125 2.65 1.5625 3.5 C2.20845014 8.66760112 5.30270345 11.49509671 9 15 C9.66 15.33 10.32 15.66 11 16 C11 13.03 11 10.06 11 7 C11.33 7 11.66 7 12 7 C12 10.63 12 14.26 12 18 C9 18 9 18 6.6875 15.9375 C5.800625 14.968125 4.91375 13.99875 4 13 C3.43023437 12.44570312 2.86046875 11.89140625 2.2734375 11.3203125 C0.60472597 9.60588285 -0.80368785 8.07421423 -2 6 C-1.375 2.5625 -1.375 2.5625 0 0 Z " fill="#403D30" transform="translate(44,106)"/>
<path d="M0 0 C0 0.99 0 1.98 0 3 C-1.65 3.66 -3.3 4.32 -5 5 C-5 5.66 -5 6.32 -5 7 C-8.3 7.66 -11.6 8.32 -15 9 C-15 9.66 -15 10.32 -15 11 C-17.97 11 -20.94 11 -24 11 C-20.78740705 8.85827136 -17.90346207 7.85588744 -14.25 6.625 C-9.1072692 4.83090033 -4.57411615 2.94050324 0 0 Z " fill="#DED936" transform="translate(159,134)"/>
<path d="M0 0 C0.66 0 1.32 0 2 0 C1.67 3.3 1.34 6.6 1 10 C1.66 10.33 2.32 10.66 3 11 C2.34 12.32 1.68 13.64 1 15 C3.93443402 14.73343428 3.93443402 14.73343428 7 14 C7.66 13.01 8.32 12.02 9 11 C9 11.99 9 12.98 9 14 C9.66 14.33 10.32 14.66 11 15 C9.73160474 15.50615298 8.46016898 16.00469099 7.1875 16.5 C6.47980469 16.7784375 5.77210938 17.056875 5.04296875 17.34375 C3 18 3 18 0 18 C0 12.06 0 6.12 0 0 Z " fill="#EEECEA" transform="translate(135,124)"/>
<path d="M0 0 C0 0.66 0 1.32 0 2 C-1.15370535 3.15370535 -2.31243751 4.30282533 -3.49609375 5.42578125 C-5.84025623 7.87954094 -7.72391327 10.65075747 -9.66796875 13.42578125 C-10.10753906 13.94527344 -10.54710937 14.46476562 -11 15 C-11.66 15 -12.32 15 -13 15 C-12.125 10.25 -12.125 10.25 -11 8 C-10.01 8 -9.02 8 -8 8 C-8 7.01 -8 6.02 -8 5 C-7.34 5 -6.68 5 -6 5 C-6 4.34 -6 3.68 -6 3 C-5.34 3 -4.68 3 -4 3 C-4 2.34 -4 1.68 -4 1 C-2 0 -2 0 0 0 Z " fill="#E6DF32" transform="translate(196,86)"/>
<path d="M0 0 C0 0.33 0 0.66 0 1 C-2.08164018 1.36398622 -4.16540562 1.71583287 -6.25 2.0625 C-7.99023438 2.35833984 -7.99023438 2.35833984 -9.765625 2.66015625 C-12.62522624 2.9606216 -14.33325929 2.9439206 -17 2 C-17 2.66 -17 3.32 -17 4 C-20.63 3.67 -24.26 3.34 -28 3 C-28 2.67 -28 2.34 -28 2 C-24.46042297 1.46425839 -20.91814195 0.94908859 -17.375 0.4375 C-16.37597656 0.28603516 -15.37695312 0.13457031 -14.34765625 -0.02148438 C-9.32273154 -0.73695379 -4.99996637 -1.28838724 0 0 Z " fill="#514716" transform="translate(150,121)"/>
<path d="M0 0 C-0.33 5.94 -0.66 11.88 -1 18 C-1.66 18 -2.32 18 -3 18 C-3 12.72 -3 7.44 -3 2 C-4.65 2 -6.3 2 -8 2 C-5 0 -5 0 0 0 Z " fill="#100C09" transform="translate(155,119)"/>
<path d="M0 0 C10.56 0.66 21.12 1.32 32 2 C32 2.33 32 2.66 32 3 C28.16801985 3.25729782 24.33474251 3.47569736 20.5 3.6875 C18.88351563 3.79674805 18.88351563 3.79674805 17.234375 3.90820312 C10.63863499 4.2500555 5.994235 3.82980269 0 1 C0 0.67 0 0.34 0 0 Z " fill="#4B4209" transform="translate(89,122)"/>
<path d="M0 0 C0.99 0.33 1.98 0.66 3 1 C3.73046875 2.9609375 3.73046875 2.9609375 4.1875 5.375 C4.34605469 6.16648437 4.50460938 6.95796875 4.66796875 7.7734375 C5 10 5 10 5 13 C3.68 13 2.36 13 1 13 C0.7834375 11.6078125 0.7834375 11.6078125 0.5625 10.1875 C0.07899889 6.99274889 0.07899889 6.99274889 -1 4 C-0.5625 1.8125 -0.5625 1.8125 0 0 Z " fill="#F8EA17" transform="translate(33,101)"/>
<path d="M0 0 C-3.09551715 2.0636781 -4.51146416 2.39452145 -8.10546875 2.8515625 C-9.08837891 2.98046875 -10.07128906 3.109375 -11.08398438 3.2421875 C-12.62022461 3.43167969 -12.62022461 3.43167969 -14.1875 3.625 C-15.22326172 3.7590625 -16.25902344 3.893125 -17.32617188 4.03125 C-19.88330003 4.36120202 -22.44113797 4.68382514 -25 5 C-24.34 4.01 -23.68 3.02 -23 2 C-21.35 2.33 -19.7 2.66 -18 3 C-18 2.34 -18 1.68 -18 1 C-16.12528812 0.83012319 -14.25021305 0.66425224 -12.375 0.5 C-11.33085937 0.4071875 -10.28671875 0.314375 -9.2109375 0.21875 C-6.12853212 0.00875645 -3.08834771 -0.03709727 0 0 Z " fill="#E3DB3E" transform="translate(153,118)"/>
<path d="M0 0 C0.99 0.33 1.98 0.66 3 1 C3 1.99 3 2.98 3 4 C4.98 4.66 6.96 5.32 9 6 C5.16905403 7.45279835 2.65799654 6.5027187 -1.125 5.1875 C-2.17945312 4.83042969 -3.23390625 4.47335938 -4.3203125 4.10546875 C-7 3 -7 3 -9 1 C-7.700625 1.020625 -6.40125 1.04125 -5.0625 1.0625 C-3.70834367 1.08399454 -2.35243917 1.07148199 -1 1 C-0.67 0.67 -0.34 0.34 0 0 Z " fill="#E4E02C" transform="translate(69,112)"/>
<path d="M0 0 C-1.98 0.33 -3.96 0.66 -6 1 C-6 1.66 -6 2.32 -6 3 C-5.34 3.33 -4.68 3.66 -4 4 C-4.66 4.66 -5.32 5.32 -6 6 C-7.9453125 5.7578125 -7.9453125 5.7578125 -10.125 5.125 C-11.21167969 4.81949219 -11.21167969 4.81949219 -12.3203125 4.5078125 C-12.87460938 4.34023437 -13.42890625 4.17265625 -14 4 C-12.9375 2.0625 -12.9375 2.0625 -11 0 C-7.07414359 -0.9279297 -3.84216542 -1.38317955 0 0 Z " fill="#E6DE24" transform="translate(134,146)"/>
<path d="M0 0 C2.92586433 1.46293216 3.05946588 3.40270098 4.125 6.4375 C4.47820313 7.42621094 4.83140625 8.41492188 5.1953125 9.43359375 C6 12 6 12 6 14 C5.01 14 4.02 14 3 14 C3 12.02 3 10.04 3 8 C1.68 8 0.36 8 -1 8 C-1.04241723 5.66705225 -1.04092937 3.33297433 -1 1 C-0.67 0.67 -0.34 0.34 0 0 Z " fill="#E7DF34" transform="translate(28,86)"/>
<path d="M0 0 C2.07169246 0.43473339 4.15727751 0.80654223 6.25 1.125 C7.32765625 1.29257813 8.4053125 1.46015625 9.515625 1.6328125 C10.74539062 1.81457031 10.74539062 1.81457031 12 2 C12 2.33 12 2.66 12 3 C5.1955185 3.22893583 -1.50470939 3.31260897 -8 1 C-8.66 0.34 -9.32 -0.32 -10 -1 C-5.64234967 -1.99037507 -3.89144976 -1.94572488 0 0 Z " fill="#26220A" transform="translate(95,143)"/>
<path d="M0 0 C0.99 0.33 1.98 0.66 3 1 C1.2758698 2.29838176 -0.45453232 3.58843747 -2.1875 4.875 C-3.63189453 5.95394531 -3.63189453 5.95394531 -5.10546875 7.0546875 C-7.71128675 8.80596599 -10.04792144 9.97459794 -13 11 C-13 10.01 -13 9.02 -13 8 C-10.91796875 6.46484375 -10.91796875 6.46484375 -8.1875 4.9375 C-7.29417969 4.43089844 -6.40085938 3.92429688 -5.48046875 3.40234375 C-4.66191406 2.93957031 -3.84335938 2.47679687 -3 2 C-2.01 1.34 -1.02 0.68 0 0 Z " fill="#3B3910" transform="translate(167,126)"/>
<path d="M0 0 C2.31 0.33 4.62 0.66 7 1 C6.67 2.32 6.34 3.64 6 5 C5.01 4.67 4.02 4.34 3 4 C3 3.34 3 2.68 3 2 C2.62875 2.45375 2.2575 2.9075 1.875 3.375 C-0.54264685 5.47029394 -2.95430602 6.12013285 -6 7 C-6 6.01 -6 5.02 -6 4 C-4.7934375 3.566875 -4.7934375 3.566875 -3.5625 3.125 C-0.8673532 2.26737432 -0.8673532 2.26737432 0 0 Z " fill="#F8EC1B" transform="translate(160,134)"/>
<path d="M0 0 C2.31 0.33 4.62 0.66 7 1 C6.67 1.99 6.34 2.98 6 4 C5.34 4 4.68 4 4 4 C3.67 4.66 3.34 5.32 3 6 C2.34 5.67 1.68 5.34 1 5 C1 8.3 1 11.6 1 15 C0.67 15 0.34 15 0 15 C0 10.05 0 5.1 0 0 Z " fill="#E2E3DF" transform="translate(73,121)"/>
<path d="M0 0 C0.66 0 1.32 0 2 0 C3.05363955 2.85102467 3.49611656 4.0594758 3 7 C0.34570339 10.68711767 -2.74168774 13.84331151 -6 17 C-6.66 16.34 -7.32 15.68 -8 15 C-7.4225 14.41992188 -6.845 13.83984375 -6.25 13.2421875 C-5.13625 12.07042969 -5.13625 12.07042969 -4 10.875 C-3.2575 10.10929687 -2.515 9.34359375 -1.75 8.5546875 C0.36623402 5.46536373 0.34025361 3.66835926 0 0 Z " fill="#413A22" transform="translate(179,107)"/>
<path d="M0 0 C2.0625 0.4375 2.0625 0.4375 4 1 C1.73192796 2.0067004 -0.53907754 3.00551766 -2.8125 4 C-3.77639648 4.42925781 -3.77639648 4.42925781 -4.75976562 4.8671875 C-7.67756469 6.13711041 -9.78265714 7 -13 7 C-12.67 6.01 -12.34 5.02 -12 4 C-10.35 4 -8.7 4 -7 4 C-6.67 3.01 -6.34 2.02 -6 1 C-4.7934375 1.0309375 -4.7934375 1.0309375 -3.5625 1.0625 C-1.06645115 1.29633621 -1.06645115 1.29633621 0 0 Z " fill="#E5E135" transform="translate(166,111)"/>
<path d="M0 0 C2.13911742 2.05129442 3.95737463 4.15695031 5.6875 6.5625 C6.12449219 7.16191406 6.56148437 7.76132813 7.01171875 8.37890625 C8 10 8 10 8 12 C7.34 12 6.68 12 6 12 C5.67 12.99 5.34 13.98 5 15 C4.16260219 12.8765984 3.33019717 10.7512272 2.5 8.625 C1.80390625 6.84996094 1.80390625 6.84996094 1.09375 5.0390625 C0 2 0 2 0 0 Z " fill="#3B3500" transform="translate(29,85)"/>
<path d="M0 0 C0.33 0.66 0.66 1.32 1 2 C-0.21484375 4.8203125 -0.21484375 4.8203125 -1.9375 8.125 C-2.50339844 9.22070312 -3.06929687 10.31640625 -3.65234375 11.4453125 C-4.09707031 12.28835937 -4.54179687 13.13140625 -5 14 C-5.66 13.34 -6.32 12.68 -7 12 C-6.66041405 8.56078907 -5.02888817 6.41985724 -2.9375 3.75 C-2.38964844 3.04359375 -1.84179688 2.3371875 -1.27734375 1.609375 C-0.85582031 1.07828125 -0.43429688 0.5471875 0 0 Z " fill="#352B01" transform="translate(194,88)"/>
<path d="M0 0 C5.13373162 1.39038565 10.03739743 3.08460953 15 5 C12 7 12 7 9.87890625 6.64453125 C2.13608684 3.86338364 2.13608684 3.86338364 -1 1 C-0.67 0.67 -0.34 0.34 0 0 Z " fill="#443B17" transform="translate(73,136)"/>
<path d="M0 0 C0.33 0 0.66 0 1 0 C1 5.61 1 11.22 1 17 C-3.44607497 15.22157001 -4.9797308 14.35585467 -8 11 C-4.92463146 11.65900754 -2.92264434 12.53867783 0 14 C0 9.38 0 4.76 0 0 Z " fill="#4C4439" transform="translate(71,120)"/>
<path d="M0 0 C0.33 1.32 0.66 2.64 1 4 C1.66 3.67 2.32 3.34 3 3 C2.49396008 5.16874252 2.00016187 6.99967627 1 9 C0.34 9 -0.32 9 -1 9 C-1 7.02 -1 5.04 -1 3 C-1.61875 3.495 -2.2375 3.99 -2.875 4.5 C-5 6 -5 6 -7 6 C-5.81636731 2.44910192 -3.99368042 0 0 0 Z " fill="#221C06" transform="translate(182,104)"/>
<path d="M0 0 C0.99 1.485 0.99 1.485 2 3 C2.99 3.33 3.98 3.66 5 4 C4.34 4 3.68 4 3 4 C3.25561323 6.3431213 3.59270772 8.67843403 4 11 C4.66 11.33 5.32 11.66 6 12 C4.68 12 3.36 12 2 12 C0 10 0 10 -0.1953125 7.6171875 C-0.17210937 6.71226563 -0.14890625 5.80734375 -0.125 4.875 C-0.10695312 3.96492188 -0.08890625 3.05484375 -0.0703125 2.1171875 C-0.04710937 1.41851562 -0.02390625 0.71984375 0 0 Z " fill="#DEE0DA" transform="translate(57,115)"/>
<path d="M0 0 C1.65 0.33 3.3 0.66 5 1 C4.67 2.65 4.34 4.3 4 6 C2.35 5.67 0.7 5.34 -1 5 C-0.67 3.35 -0.34 1.7 0 0 Z " fill="#311D01" transform="translate(146,61)"/>
<path d="M0 0 C0.66 0.66 1.32 1.32 2 2 C0.07010241 2.89164261 -1.86924081 3.76286603 -3.8125 4.625 C-4.89144531 5.11226562 -5.97039062 5.59953125 -7.08203125 6.1015625 C-8.04496094 6.39804688 -9.00789062 6.69453125 -10 7 C-10.99 6.34 -11.98 5.68 -13 5 C-8.71 3.35 -4.42 1.7 0 0 Z " fill="#373311" transform="translate(151,136)"/>
<path d="M0 0 C6.97669157 -0.39325819 12.51656189 0.36903961 19 3 C14.97985339 4.56454159 11.30074319 3.46223974 7.25 2.5625 C6.55261719 2.41490234 5.85523437 2.26730469 5.13671875 2.11523438 C3.4227979 1.75131967 1.71115419 1.37670932 0 1 C0 0.67 0 0.34 0 0 Z " fill="#EDE540" transform="translate(78,119)"/>
<path d="M0 0 C1.65 0 3.3 0 5 0 C5 1.65 5 3.3 5 5 C3.68 5.33 2.36 5.66 1 6 C-0.0625 4.125 -0.0625 4.125 -1 2 C-0.67 1.34 -0.34 0.68 0 0 Z " fill="#2D2102" transform="translate(75,61)"/>
<path d="M0 0 C0.90105469 0.01804688 1.80210937 0.03609375 2.73046875 0.0546875 C3.41753906 0.07789063 4.10460937 0.10109375 4.8125 0.125 C4.8125 1.115 4.8125 2.105 4.8125 3.125 C0.5225 2.795 -3.7675 2.465 -8.1875 2.125 C-4.87379 -0.08414 -3.8428979 -0.09981553 0 0 Z " fill="#F8EF16" transform="translate(139.1875,144.875)"/>
<path d="M0 0 C1 2 1 2 0.4375 4.875 C-1.336105 8.73066305 -3.35996583 9.94258938 -7 12 C-7.66 11.67 -8.32 11.34 -9 11 C-8.51789063 10.45730469 -8.03578125 9.91460937 -7.5390625 9.35546875 C-6.90742188 8.64003906 -6.27578125 7.92460938 -5.625 7.1875 C-4.68527344 6.12595703 -4.68527344 6.12595703 -3.7265625 5.04296875 C-1.859401 2.91196181 -1.859401 2.91196181 0 0 Z " fill="#E8E038" transform="translate(184,110)"/>
<path d="M0 0 C0 0.66 0 1.32 0 2 C-1.92989759 2.89164261 -3.86924081 3.76286603 -5.8125 4.625 C-6.89144531 5.11226563 -7.97039062 5.59953125 -9.08203125 6.1015625 C-10.04496094 6.39804688 -11.00789062 6.69453125 -12 7 C-12.99 6.34 -13.98 5.68 -15 5 C-12.8765984 4.16260219 -10.7512272 3.33019717 -8.625 2.5 C-7.44164062 2.0359375 -6.25828125 1.571875 -5.0390625 1.09375 C-2 0 -2 0 0 0 Z " fill="#2F2709" transform="translate(168,113)"/>
<path d="M0 0 C0.66 0 1.32 0 2 0 C2.1546875 1.175625 2.1546875 1.175625 2.3125 2.375 C2.77595022 5.33045181 2.77595022 5.33045181 6 7 C4.68 7 3.36 7 2 7 C2 7.66 2 8.32 2 9 C1.34 9 0.68 9 0 9 C0 10.65 0 12.3 0 14 C-0.33 14 -0.66 14 -1 14 C-1.07427838 10.65747276 -1.06546953 8.1964086 0 5 C0.03874921 3.33378384 0.0450286 1.66605828 0 0 Z " fill="#F9ED12" transform="translate(144,52)"/>
<path d="M0 0 C4.13621084 3.3810038 7.81316569 6.66590534 11 11 C10.01 11.495 10.01 11.495 9 12 C9 11.34 9 10.68 9 10 C8.01 9.67 7.02 9.34 6 9 C6 8.34 6 7.68 6 7 C4.68 6.67 3.36 6.34 2 6 C2 5.01 2 4.02 2 3 C1.34 3 0.68 3 0 3 C0 2.01 0 1.02 0 0 Z " fill="#D8D338" transform="translate(43,114)"/>
<path d="M0 0 C3.43595166 1.52708963 6.11912454 3.59927045 9 6 C3.375 6.25 3.375 6.25 0 4 C0 2.68 0 1.36 0 0 Z " fill="#E0DD35" transform="translate(58,129)"/>
<path d="M0 0 C0.99 0 1.98 0 3 0 C3 1.32 3 2.64 3 4 C3.99 4.33 4.98 4.66 6 5 C6 5.66 6 6.32 6 7 C6.66 7 7.32 7 8 7 C7.67 8.32 7.34 9.64 7 11 C6.0158875 9.73299277 5.03788503 8.4612381 4.0625 7.1875 C3.51722656 6.47980469 2.97195312 5.77210937 2.41015625 5.04296875 C1 3 1 3 0 0 Z " fill="#ECE53B" transform="translate(30,85)"/>
<path d="M0 0 C0.33 0.99 0.66 1.98 1 3 C0.0409375 3.2784375 0.0409375 3.2784375 -0.9375 3.5625 C-3.42126213 4.94246056 -3.42126213 4.94246056 -3.75 8.625 C-3.8325 9.73875 -3.915 10.8525 -4 12 C-6 11 -6 11 -6.8125 9.3125 C-7.09424683 5.83762247 -5.8570719 3.88166329 -4 1 C-1.8125 0.125 -1.8125 0.125 0 0 Z " fill="#F8F113" transform="translate(31,82)"/>
<path d="M0 0 C1.32 0 2.64 0 4 0 C3.67 1.65 3.34 3.3 3 5 C2.01 5 1.02 5 0 5 C-0.33 5.99 -0.66 6.98 -1 8 C-2.2077558 4.37673261 -1.54311128 3.35853631 0 0 Z " fill="#FFEA10" transform="translate(34,120)"/>
<path d="M0 0 C0.33 0 0.66 0 1 0 C1.34943109 4.19317311 0.58403645 5.76995444 -2 9 C-2 9.99 -2 10.98 -2 12 C-2.99 12 -3.98 12 -5 12 C-4.54738642 10.56068883 -4.08767021 9.12361001 -3.625 7.6875 C-3.24214844 6.48673828 -3.24214844 6.48673828 -2.8515625 5.26171875 C-2 3 -2 3 0 0 Z " fill="#E1D937" transform="translate(195,89)"/>
<path d="M0 0 C2.97 0 5.94 0 9 0 C8.67 0.99 8.34 1.98 8 3 C2.25 3.125 2.25 3.125 0 2 C0 1.34 0 0.68 0 0 Z " fill="#FBEA12" transform="translate(129,150)"/>
<path d="M0 0 C4.455 0.99 4.455 0.99 9 2 C9 2.99 9 3.98 9 5 C5.7 4.34 2.4 3.68 -1 3 C-0.67 2.01 -0.34 1.02 0 0 Z " fill="#F5EB12" transform="translate(72,114)"/>
<path d="M0 0 C2.97 0 5.94 0 9 0 C9 0.66 9 1.32 9 2 C9.66 2.33 10.32 2.66 11 3 C6.74938644 4.41687119 4.28148375 3.19320039 0 2 C0 1.34 0 0.68 0 0 Z " fill="#FDEB10" transform="translate(135,114)"/>
<path d="M0 0 C0.66 0.33 1.32 0.66 2 1 C1.938125 1.9075 1.87625 2.815 1.8125 3.75 C2.01672076 7.28982642 2.64551835 8.44931155 5 11 C2 11 2 11 -0.3125 8.875 C-2 6 -2 6 -1.25 2.6875 C-0.8375 1.800625 -0.425 0.91375 0 0 Z " fill="#3D3820" transform="translate(44,106)"/>
<path d="M0 0 C6.52307692 1.47692308 6.52307692 1.47692308 8.9375 4.125 C9.288125 4.74375 9.63875 5.3625 10 6 C6.38238619 5.67112602 4.44334967 5.37334709 1.625 3 C0 1 0 1 0 0 Z " fill="#EBE822" transform="translate(48,123)"/>
<path d="M0 0 C6.86214442 5.0940919 6.86214442 5.0940919 7.4375 8.875 C7.293125 9.57625 7.14875 10.2775 7 11 C4.08156555 8.373409 2.05482685 5.33023661 0 2 C0 1.34 0 0.68 0 0 Z " fill="#C2BFB7" transform="translate(36,98)"/>
<path d="M0 0 C3 0 3 0 5.1875 1.875 C7 4 7 4 7 6 C4.61435923 5.42415568 2.33317216 4.77772405 0 4 C0 2.68 0 1.36 0 0 Z " fill="#FEE815" transform="translate(48,98)"/>
<path d="M0 0 C1.99954746 -0.04254356 4.00041636 -0.04080783 6 0 C6.33 0.33 6.66 0.66 7 1 C9.32817964 1.36760731 11.6618385 1.70241581 14 2 C14 2.66 14 3.32 14 4 C10.7 3.67 7.4 3.34 4 3 C4 2.34 4 1.68 4 1 C2.68 0.67 1.36 0.34 0 0 Z " fill="#F7EC15" transform="translate(92,147)"/>
<path d="M0 0 C4.875 1.75 4.875 1.75 6 4 C4.68 3.67 3.36 3.34 2 3 C2 4.65 2 6.3 2 8 C1.01 8 0.02 8 -1 8 C-1 7.34 -1 6.68 -1 6 C-0.34 6 0.32 6 1 6 C0.67 4.02 0.34 2.04 0 0 Z " fill="#151102" transform="translate(42,103)"/>
<path d="M0 0 C2.64 0 5.28 0 8 0 C8 0.66 8 1.32 8 2 C2.25 3.125 2.25 3.125 0 2 C0 1.34 0 0.68 0 0 Z " fill="#F3F203" transform="translate(128,147)"/>
<path d="M0 0 C4.7517398 0.43197635 6.92000054 1.32769295 10 5 C9.01 5.495 9.01 5.495 8 6 C6.0546875 5.0390625 6.0546875 5.0390625 3.875 3.625 C3.15054688 3.16351563 2.42609375 2.70203125 1.6796875 2.2265625 C1.12539063 1.82179688 0.57109375 1.41703125 0 1 C0 0.67 0 0.34 0 0 Z " fill="#382F18" transform="translate(46,107)"/>
<path d="M0 0 C0.99 0.33 1.98 0.66 3 1 C3.33 2.65 3.66 4.3 4 6 C0.83884224 4.63016497 0.0072908 4.0109362 -2 1 C-1.34 0.67 -0.68 0.34 0 0 Z " fill="#D8D9CD" transform="translate(51,116)"/>
<path d="M0 0 C4.95 0.99 4.95 0.99 10 2 C6.77208445 4.1519437 5.71599191 4.20086443 2 4 C2 3.34 2 2.68 2 2 C1.34 2 0.68 2 0 2 C0 1.34 0 0.68 0 0 Z " fill="#DED730" transform="translate(86,143)"/>
<path d="M0 0 C0.99 0.33 1.98 0.66 3 1 C4.1875 3.5625 4.1875 3.5625 5 6 C3.35 5.67 1.7 5.34 0 5 C0 3.35 0 1.7 0 0 Z " fill="#EBECE4" transform="translate(94,138)"/>
<path d="M0 0 C1.98 0.99 3.96 1.98 6 3 C4 4 2 5 0 6 C0 4.02 0 2.04 0 0 Z " fill="#E7E4E4" transform="translate(45,107)"/>
<path d="M0 0 C0 0.99 0 1.98 0 3 C-1.98 3.99 -3.96 4.98 -6 6 C-6 5.01 -6 4.02 -6 3 C-4.02 2.01 -2.04 1.02 0 0 Z " fill="#2C2E11" transform="translate(160,131)"/>
<path d="M0 0 C0.99 0 1.98 0 3 0 C2.6875 1.875 2.6875 1.875 2 4 C1.01 4.66 0.02 5.32 -1 6 C-1.042721 4.33388095 -1.04063832 2.66617115 -1 1 C-0.67 0.67 -0.34 0.34 0 0 Z " fill="#F3EFF6" transform="translate(171,117)"/>
<path d="M0 0 C2.66735273 2.48952921 4.55746343 4.63408134 6 8 C4.35 7.67 2.7 7.34 1 7 C0.67 4.69 0.34 2.38 0 0 Z " fill="#E3D835" transform="translate(36,104)"/>
<path d="M0 0 C3.37462715 0.54723683 5.08235 1.0549 8 3 C8 3.66 8 4.32 8 5 C4.62496331 3.8141763 2.35277269 2.72426311 0 0 Z " fill="#DBD530" transform="translate(44,103)"/>
</svg>
